<svg xmlns="http://www.w3.org/2000/svg" class="logo__svg" aria-hidden="true" focusable="false" viewBox="0 0 132 41" id="logo" width="132" height="41" fill="currentColor"><title xmlns="http://www.w3.org/1999/xhtml">All Accor</title><path d="M37.154 40h-9.177L21.23 25.337c-2.067 1.124-3.636 3.075-5.274 5.11-1.282 1.594-2.607 3.24-4.245 4.585-1.907 1.564-4.124 2.949-6.895 3.894-1.255.424-3.39.978-4.189 1.06-.342.032-.57.016-.62-.099-.032-.097.05-.163.408-.342.073-.035.185-.085.328-.15.658-.296 1.947-.877 2.818-1.48 1.32-.928 2.07-1.922 2.135-2.688-.066-.235-.21-.525-.382-.874-.758-1.53-2.078-4.196.073-8.43.38-.753.738-1.419 1.07-2.034.493-.916.926-1.719 1.277-2.528.668-1.548 1.157-3.731 1.32-5.36.016-.098.033-.098.082-.033 1.287 1.303 6.275 6.42 5.542 11.52 1.662-.636 4.53-2.575 5.851-3.601.31-.242.597-.485.87-.718.964-.818 1.773-1.505 2.928-1.53.742-.01 1.103.187 1.465.384.282.154.565.308 1.029.365.26.032.652-.017.848-.114.081-.033.065-.13-.066-.163-.596-.143-1.007-.429-1.417-.715-.575-.4-1.149-.8-2.234-.8-1.25 0-2.317.866-3.178 1.567-.283.23-.545.442-.783.6l-4.71-9.81C13.324 8.849 13.91 5.867 18.246 0l18.908 40zM52.133 40.016h-5.689c-2.396 0-3.618-.53-4.499-1.705C41 37.07 41 35.165 41 33.377V.017h7.335v34.436c0 2.732.293 4.67 3.798 5.447v.116zM60.444 40.016h5.689v-.115c-3.505-.779-3.798-2.716-3.798-5.448V.016H55v33.361c0 1.788 0 3.692.945 4.934.88 1.176 2.103 1.705 4.5 1.705z"/><path fill-rule="evenodd" clip-rule="evenodd" d="M74.938 9.613h-2.706l-.375.864h-1.45l2.9-6.6h.555l2.901 6.6h-1.45l-.375-.864zM73.6 6.29l-.864 2.216h1.744l-.88-2.216z"/><path d="M85.304 5.393a3.175 3.175 0 0 0-1.207-1.206 3.346 3.346 0 0 0-1.711-.44c-.978 0-1.81.326-2.494.978-.684.652-1.027 1.467-1.027 2.428 0 .978.326 1.792 1.01 2.444.67.652 1.5.978 2.495.978a3.45 3.45 0 0 0 1.727-.44 3.066 3.066 0 0 0 1.207-1.206l-1.027-.717c-.473.733-1.092 1.108-1.891 1.108-.62 0-1.125-.195-1.532-.603-.408-.39-.603-.912-.603-1.548 0-.635.195-1.157.603-1.564.407-.407.913-.603 1.532-.603.799 0 1.418.375 1.89 1.108l1.028-.717zM93.111 4.187c.505.294.913.685 1.206 1.206l-1.026.717c-.473-.733-1.093-1.108-1.891-1.108-.62 0-1.125.196-1.532.603-.408.407-.604.929-.604 1.564 0 .636.196 1.157.604 1.548.407.408.912.603 1.532.603.798 0 1.418-.375 1.89-1.108l1.027.717a3.066 3.066 0 0 1-1.206 1.206 3.45 3.45 0 0 1-1.728.44c-.994 0-1.825-.326-2.493-.978-.685-.652-1.011-1.466-1.011-2.444 0-.961.342-1.776 1.027-2.428.684-.652 1.516-.977 2.494-.977.635 0 1.206.146 1.711.44z"/><path fill-rule="evenodd" clip-rule="evenodd" d="M103.935 7.17c0-.962-.342-1.777-1.026-2.428-.701-.668-1.533-.978-2.494-.978-.962 0-1.793.326-2.478.978-.684.651-1.027 1.466-1.027 2.427 0 .978.343 1.793 1.027 2.444.668.652 1.5.978 2.478.978.978 0 1.809-.326 2.494-.978.684-.668 1.026-1.482 1.026-2.444zm-5.64 0c0-.636.196-1.158.604-1.565.407-.407.912-.603 1.532-.603.603 0 1.108.196 1.516.603.407.407.603.929.603 1.564 0 .636-.196 1.157-.603 1.565-.408.407-.913.602-1.516.602-.62 0-1.141-.195-1.532-.602-.408-.408-.603-.93-.603-1.565zM111.156 10.477l-1.711-2.33h-.994v2.33h-1.353v-6.6h2.477c.701 0 1.272.196 1.712.588.44.39.668.912.668 1.547 0 .424-.098.799-.31 1.108-.212.326-.489.57-.847.75l1.874 2.607h-1.516zm-1.581-3.52c.31 0 .554-.081.734-.26.179-.18.261-.408.261-.685a.931.931 0 0 0-.278-.684c-.179-.18-.423-.26-.733-.26h-1.125v1.89h1.141z"/><path d="M74.66 23.691h-2.885v-5.377h-1.353v6.6h4.238V23.69zM78.818 24.913h-1.353v-6.599h1.353v6.6zM85.026 24.897l2.885-6.599h-1.516l-1.646 4.008-1.646-4.008H81.57l2.902 6.6h.554zM95.116 19.52h-3.097v1.336h2.266v1.157h-2.266v1.678h3.211v1.222h-4.564v-6.599h4.45v1.206zM74.66 38.54h-2.885v-5.377h-1.353v6.599h4.238V38.54zM78.818 39.762h-1.353v-6.6h1.353v6.6zM88.743 39.762v-6.615h-.538l-2.706 3.47-2.706-3.47h-.522v6.615h1.353v-3.536l1.663 2.086h.44l1.663-2.086v3.536h1.353zM93.568 39.762h-1.353v-6.6h1.353v6.6zM99.778 34.369h2.12v-1.206h-5.591v1.206h2.119v5.377h1.352v-5.377zM106.021 38.54h2.885v1.222h-4.238v-6.6h1.353v5.378zM113.064 34.369h3.097v-1.206h-4.45v6.599h4.564V38.54h-3.211v-1.678h2.266v-1.157h-2.266v-1.336zM122.63 33.375c.375.228.652.538.864.912l-.913.717c-.342-.505-.766-.766-1.255-.766a.994.994 0 0 0-.587.163c-.163.114-.228.261-.228.473 0 .179.065.31.179.407.114.098.31.212.603.342l.75.326c.554.245.962.522 1.239.815.261.293.407.668.407 1.108 0 .603-.211 1.075-.652 1.434-.44.358-.994.537-1.662.537-.554 0-1.06-.13-1.5-.39-.44-.261-.798-.62-1.043-1.06l.929-.7c.457.635.994.961 1.614.961.293 0 .521-.065.684-.196a.651.651 0 0 0 .245-.537.59.59 0 0 0-.114-.359.853.853 0 0 0-.333-.265 5.674 5.674 0 0 0-.401-.19l-.717-.327c-.521-.228-.913-.505-1.19-.798-.277-.294-.407-.668-.407-1.108 0-.554.212-1.01.619-1.353.408-.342.946-.521 1.565-.521.505.033.945.147 1.304.375zM130.879 34.287a2.443 2.443 0 0 0-.864-.912c-.375-.228-.815-.342-1.304-.375-.62 0-1.158.18-1.565.521-.408.343-.62.799-.62 1.353 0 .44.131.814.408 1.108.277.293.668.57 1.19.798l.717.326c.178.076.306.142.4.191l.073.037c.098.05.179.13.261.228a.59.59 0 0 1 .114.359.651.651 0 0 1-.245.538c-.163.13-.391.195-.684.195-.62 0-1.158-.326-1.614-.961l-.929.7c.244.44.603.799 1.043 1.06.44.26.945.39 1.5.39.668 0 1.222-.179 1.662-.537.44-.359.652-.831.652-1.434 0-.44-.146-.815-.407-1.108-.277-.293-.685-.57-1.239-.815l-.75-.326c-.293-.13-.489-.244-.603-.342a.506.506 0 0 1-.179-.407c0-.212.065-.359.228-.473a.992.992 0 0 1 .587-.163c.489 0 .913.261 1.255.766l.913-.717z"/></svg>