<svg xmlns="http://www.w3.org/2000/svg" viewBox="-840 4896 72.868 27.497" fill="currentColor" width="72.868" height="27.497"><title xmlns="http://www.w3.org/1999/xhtml">SSL Secure – globalSign</title><g transform="translate(-1002.782 -1125)" fill="currentColor"><path d="M46.6,277.043c-.047,5.077-2.133,9.031-6.568,11.522a12.6,12.6,0,0,1-15.419-2.236,12.145,12.145,0,0,1-3.567-10.276,12.354,12.354,0,0,1,7.738-10.493,12.48,12.48,0,0,1,10.2.047c.293.123.283.321.283.566,0,2.435.009,4.869-.009,7.313a1.007,1.007,0,0,0,.51.963c1.566,1.01,3.142,2.029,4.662,3.114.142.1.264.217.4.33a.523.523,0,0,0,.84-.1A2.767,2.767,0,0,1,46.6,277.043ZM34.03,284.3h5.048c.661,0,.774-.113.783-.764q.009-3.51,0-7.03c0-.679-.123-.821-.793-.812-.321,0-.434-.085-.425-.425a13.144,13.144,0,0,0-.057-2.359,4.607,4.607,0,0,0-9.059-.132,13.723,13.723,0,0,0-.075,2.491c-.009.274-.038.425-.377.415-.736-.019-.849.113-.849.84v6.983c0,.679.1.783.8.783h5Zm-.009-1.632c-.868,0-.878,0-.783-.887.028-.283.066-.557.094-.84a1.336,1.336,0,0,0-.321-1.264,1.239,1.239,0,0,1,.245-1.708,1.255,1.255,0,0,1,1.708.132,1.214,1.214,0,0,1,.028,1.7.8.8,0,0,0-.264.821c.094.538.1,1.095.189,1.633.047.33-.019.472-.368.425A4.024,4.024,0,0,0,34.021,282.667Zm.047-6.587c-.963,0-1.916-.009-2.878.009-.311.009-.415-.085-.4-.4.047-.878-.057-1.755.075-2.633a3.352,3.352,0,0,1,3.237-2.869,3.294,3.294,0,0,1,3.208,2.793,21.634,21.634,0,0,1,.085,2.821c.009.293-.16.283-.359.283H34.068Z" transform="translate(141.826 5758.249)"/><path  d="M-3441.594,14.609c-.16,0-.324-.111-.651-.332l-4.421-2.949a.62.62,0,0,1-.33-.6c.013-1.087.012-2.175.01-3.267V5.188c0-1.16,0-2.268-.01-3.371,0-.269.076-.368.339-.444.42-.115.843-.223,1.265-.332a32.873,32.873,0,0,0,3.387-1,.719.719,0,0,1,.243-.042.7.7,0,0,1,.267.052c1.227.462,2.5.825,3.737,1.176l1.161.334c.315.095.368.236.368.518q-.019,4.313,0,8.635a.627.627,0,0,1-.359.623c-1.586.98-3.008,1.874-4.349,2.9C-3441.264,14.484-3441.427,14.609-3441.594,14.609Zm-4.175-7.563a1.023,1.023,0,0,0-.166.019.988.988,0,0,1-.157.018c-.181.067-.148.175-.122.263l.032.15a1.345,1.345,0,0,0,1.411,1.192c.854,0,1.256-.3,1.387-1.048a1.338,1.338,0,0,0-.53-1.463,1.58,1.58,0,0,0-.367-.2c-.126-.048-.253-.092-.381-.135-.17-.058-.34-.116-.507-.185a.367.367,0,0,1-.226-.334.372.372,0,0,1,.283-.354,1.094,1.094,0,0,1,.319-.052.556.556,0,0,1,.55.364.347.347,0,0,0,.216.222.318.318,0,0,0,.1.016,1.314,1.314,0,0,0,.251-.042l.11-.025a.125.125,0,0,0,.114-.141.716.716,0,0,0-.05-.221,1.223,1.223,0,0,0-1.329-.944c-.774.028-1.157.325-1.283.993a1.263,1.263,0,0,0-.021.225,1.241,1.241,0,0,0,.766,1.163c.163.072.319.124.48.178s.316.106.492.18a1.383,1.383,0,0,1,.127.06.491.491,0,0,1,.1.666.706.706,0,0,1-.607.27.657.657,0,0,1-.581-.279,1.074,1.074,0,0,1-.077-.185c-.014-.045-.029-.091-.047-.134C-3445.559,7.108-3445.635,7.046-3445.77,7.046Zm2.939.03h0l-.08.029c-.034.039-.025.114-.017.179a1.407,1.407,0,0,0,1.28,1.392q.116.008.224.008a1.159,1.159,0,0,0,1.309-.969,1.368,1.368,0,0,0-.939-1.766l-.308-.108c-.18-.062-.357-.122-.531-.194a.346.346,0,0,1-.221-.317.4.4,0,0,1,.268-.362.769.769,0,0,1,.286-.064.666.666,0,0,1,.231.041.674.674,0,0,1,.27.184.927.927,0,0,1,.109.168.615.615,0,0,0,.054.089.3.3,0,0,0,.254.144.75.75,0,0,0,.2-.038l.15-.034a.191.191,0,0,0,.122-.091.307.307,0,0,0-.024-.228l-.03-.1a1.164,1.164,0,0,0-1.274-.887,1.169,1.169,0,0,0-1.3.962,1.269,1.269,0,0,0,.84,1.454c.174.067.352.124.531.182l.224.073a1.257,1.257,0,0,1,.2.091.435.435,0,0,1,.216.456.616.616,0,0,1-.567.547l-.108.007a.724.724,0,0,1-.679-.453,1.365,1.365,0,0,1-.062-.187.489.489,0,0,0-.032-.1.213.213,0,0,0-.2-.159.63.63,0,0,0-.149.026.636.636,0,0,1-.153.027Zm3.62-2.829a.245.245,0,0,0-.179.054.28.28,0,0,0-.06.205c.013.3.016.574.016.847l0,.528,0,.532,0,.623,0,.668,0,.585c0,.2.017.322.247.322.353-.01.681-.015,1.01-.015s.659,0,.989.014c.255,0,.273-.121.273-.321l.006-.1c.01-.116.018-.207-.115-.238a.33.33,0,0,0-.128-.021c-.107.005-.177.006-.253.006l-.235,0-.342,0c-.119,0-.238,0-.348.011h-.041a.667.667,0,0,1-.2-.015c-.122-.055-.143-.188-.137-.372.01-.516.007-1.015,0-1.515,0-.443,0-.842,0-1.24l0-.256a.321.321,0,0,0-.061-.237.282.282,0,0,0-.207-.056h-.129l-.111,0Z" transform="translate(3628.563 6021)"/><path d="M416.828,305.317c-.8,0-1.6.019-2.406-.009-.33-.009-.377.1-.359.406a2.421,2.421,0,0,0,3.086,2.331,2.119,2.119,0,0,0,1.415-1.4.774.774,0,0,1,.906-.349c.264.142.066.189.047.283a2.936,2.936,0,0,1-2.84,2.312c-2.2.1-3.322-1.217-3.52-3.208a4.324,4.324,0,0,1,.963-3.529,2.971,2.971,0,0,1,3.161-.84,3,3,0,0,1,2.17,2.321,7,7,0,0,1,.189,1.3c.028.283-.047.387-.359.377C418.461,305.3,417.64,305.317,416.828,305.317Zm-.444-.774h2.029c.123,0,.3.075.283-.179a2.308,2.308,0,1,0-4.614-.038c-.047.274.142.217.283.217Zm-25.3.774c-.83,0-1.67.009-2.5-.009-.226,0-.3.066-.283.293.1,1.482,1.18,2.954,3.123,2.435a2.1,2.1,0,0,0,1.4-1.415.8.8,0,0,1,.915-.321c.226.151.047.17.038.255a2.878,2.878,0,0,1-2.718,2.331c-2.236.094-3.482-1.029-3.671-3.34a4.662,4.662,0,0,1,.566-2.821,2.963,2.963,0,0,1,3.067-1.491,2.738,2.738,0,0,1,2.472,1.831,5.609,5.609,0,0,1,.4,1.925c.019.283-.094.34-.349.33C392.718,305.307,391.9,305.317,391.086,305.317Zm-2.765-.774h4.416c.16,0,.217-.047.2-.217a2.314,2.314,0,1,0-4.614.217Zm-4.624,4.35a3.463,3.463,0,0,1-1.774-.406,2.374,2.374,0,0,1-1.189-1.916c-.028-.2.028-.245.217-.245.368.009.736-.085.774.5a1.257,1.257,0,0,0,.585.878,2.686,2.686,0,0,0,2.888.019,1.087,1.087,0,0,0-.113-1.925,6.345,6.345,0,0,0-1.708-.5,6.446,6.446,0,0,1-1.387-.444,1.773,1.773,0,0,1-.245-3.1,3.25,3.25,0,0,1,3.378-.236,2.008,2.008,0,0,1,1.208,1.727c.019.132.123.377-.16.33s-.576.217-.717-.179a1.99,1.99,0,0,0-2.84-1.227,1.108,1.108,0,0,0-.745.991,1.018,1.018,0,0,0,.679.981,10,10,0,0,0,2.218.594,2.024,2.024,0,0,1,1.831,2.18,2.049,2.049,0,0,1-1.529,1.774,4.058,4.058,0,0,1-.689.16A5.126,5.126,0,0,1,383.7,308.893Zm23.4-1.434a2.9,2.9,0,0,1-3.274,1.349,1.951,1.951,0,0,1-1.727-1.85c-.16-1.774-.057-3.548-.047-5.322,0-.425.415-.151.632-.208s.255.123.255.3q-.009,2.029,0,4.058c0,.17,0,.349.009.519.076,1.047.462,1.576,1.3,1.774a2.029,2.029,0,0,0,2.34-.972,4.087,4.087,0,0,0,.443-2c0-1.1.028-2.2-.009-3.3-.019-.444.226-.368.491-.387s.434.019.434.387q-.028,3.256,0,6.511c0,.368-.132.387-.434.387s-.472-.047-.425-.406a4.97,4.97,0,0,0,.009-.84Zm-12.569-2.444a3.681,3.681,0,0,1,1.916-3.473,3.246,3.246,0,0,1,4.171,1.1,2.78,2.78,0,0,1,.16.4c.217.679.189.708-.5.679-.189-.009-.283-.057-.34-.236a1.844,1.844,0,0,0-1.585-1.472,2.357,2.357,0,0,0-2.293.981,3.709,3.709,0,0,0,.3,4.482,2.145,2.145,0,0,0,3.642-.991c.038-.142-.028-.359.17-.4a1.708,1.708,0,0,1,.7,0c.17.047.076.245.047.368a2.862,2.862,0,0,1-2.387,2.406,3.283,3.283,0,0,1-3.435-1.538A4.331,4.331,0,0,1,394.53,305.015Zm15.768-2.133a2.839,2.839,0,0,1,2.265-1.529c.16-.009.5-.217.472.2s.217.679-.4.717a2.346,2.346,0,0,0-2.218,1.963,4.859,4.859,0,0,0-.047.934c-.009,1.047-.028,2.1.009,3.152.019.444-.226.377-.491.377s-.462.057-.462-.359q.038-3.293,0-6.6c0-.406.226-.311.444-.321s.472-.057.425.34A8.916,8.916,0,0,0,410.3,302.882Z" transform="translate(-183.996 5725.049)"/><path d="M386.044,412.662c0,1.161,0,1.151-1.18,1.293a3.689,3.689,0,0,1-1.217-.076,1.91,1.91,0,0,1-1.548-1.689,2.059,2.059,0,0,1,1.189-2.095,3.513,3.513,0,0,1,2.312-.151c.34.076.255.274.189.491s-.066.425-.415.311a2.227,2.227,0,0,0-1.255-.057,1.2,1.2,0,0,0-.915,1.623,1.351,1.351,0,0,0,1.746.821c.283-.113.113-.349.132-.538s-.132-.264-.3-.245a.347.347,0,0,1-.425-.377c.009-.34.094-.434.4-.4h.189C386.044,411.567,386.044,411.567,386.044,412.662Zm21.874.906a1.355,1.355,0,0,1-1.736.038,1.588,1.588,0,0,1-.274-2.048,1.4,1.4,0,0,1,1.9-.443c.142.075.179.132.293-.057s.377-.1.566-.066.085.236.085.368c0,.8.019,1.6-.038,2.4a1.323,1.323,0,0,1-1.444,1.406,3.094,3.094,0,0,1-1.066-.113c-.283-.085-.245-.236-.2-.472s.226-.227.406-.151a1.585,1.585,0,0,0,.689.123C407.681,414.53,407.964,414.209,407.917,413.568Zm.028-1.17c0-.6-.217-.887-.708-.878a.8.8,0,0,0-.774.887.814.814,0,0,0,.774.887C407.672,413.294,407.936,412.992,407.946,412.4Zm-5.954,1.576a3.445,3.445,0,0,1-1.019-.113c-.34-.066-.406-.236-.3-.566s.16-.425.491-.274a1.51,1.51,0,0,0,1.1.094.361.361,0,0,0,.3-.321.349.349,0,0,0-.236-.368c-.274-.113-.557-.2-.83-.311-.632-.264-.906-.651-.849-1.2a1.183,1.183,0,0,1,1.047-1.057,3.426,3.426,0,0,1,1.444.047c.349.085.255.274.189.481s-.038.472-.406.321a1.528,1.528,0,0,0-.83-.113c-.189.028-.387.094-.434.3s.151.321.321.406a4.665,4.665,0,0,0,.528.2c.8.274,1.161.717,1.095,1.321a1.389,1.389,0,0,1-1.406,1.142h-.208Zm-9.144-2.652a1.5,1.5,0,0,1,1.9-.123,1.629,1.629,0,0,1,.377,1.859,1.353,1.353,0,0,1-1.482.915l-.321-.066c-.236-.047-.406-.415-.745-.038s-.51,0-.51-.368c.009-1.161.009-2.321,0-3.491,0-.283.047-.406.377-.415s.425.1.406.425S392.847,410.85,392.847,411.322Zm0,1.132c0,.557.3.906.783.9a.913.913,0,0,0-.019-1.812C393.14,411.548,392.857,411.878,392.847,412.454Zm-3.067,1.529a1.47,1.47,0,0,1-1.585-1.5,1.557,1.557,0,0,1,1.661-1.585,1.467,1.467,0,0,1,1.585,1.548A1.516,1.516,0,0,1,389.781,413.983Zm.812-1.529c0-.595-.293-.963-.793-.953a.851.851,0,0,0-.8.972.883.883,0,0,0,.793.944A.861.861,0,0,0,390.592,412.454Zm7.719.406c0,.208.009.406,0,.613s.113.349-.085.415-.444.1-.538-.028-.293-.076-.444-.009a1.2,1.2,0,0,1-1.255-.057c-.406-.283-.359-.5-.33-.83a.859.859,0,0,1,.481-.708,2.255,2.255,0,0,1,1.038-.264c.113,0,.274.038.293-.151a.3.3,0,0,0-.217-.283,1.384,1.384,0,0,0-1.01.047c-.142.047-.255.094-.311-.123s-.094-.321.142-.406a2.275,2.275,0,0,1,1.519-.075,1,1,0,0,1,.708,1.01c.019.283,0,.566,0,.849Zm-1.463.547a.679.679,0,0,0,.689-.67h0c0-.179-.057-.245-.245-.245-.481,0-.878.245-.859.547s.217.368.425.368h-.009Zm12.8-2.416c.283-.019.613-.151.689.34a1.4,1.4,0,0,1,.849-.415,1.057,1.057,0,0,1,1.2.83,9.614,9.614,0,0,1,.076,1.972c0,.349-.3.16-.472.189s-.359.038-.349-.236c.009-.444.009-.878,0-1.321s-.236-.812-.6-.8-.632.33-.642.83-.009.944-.019,1.415c-.859.009-.717.057-.727-.727S409.644,411.68,409.644,410.991Zm-9.729.821c0,.585-.019,1.161.009,1.746.009.311-.123.368-.387.359s-.415,0-.415-.34q.028-1.812,0-3.624c0-.34.179-.321.415-.33s.4.038.387.359C399.9,410.586,399.915,411.2,399.915,411.812Zm-12.352-.019c0,.613-.019,1.227.009,1.831.009.34-.2.283-.4.283s-.4.028-.387-.293q.019-1.859,0-3.708c0-.34.208-.274.4-.283s.4-.038.387.293C387.544,410.539,387.563,411.171,387.563,411.794Zm17.476.661c0,.387-.019.783,0,1.17s-.2.293-.4.293-.415.057-.406-.283q.019-1.2,0-2.387c-.009-.3.189-.274.377-.264s.434-.094.425.255,0,.812,0,1.217Zm.076-2.34c-.038.283-.179.453-.462.453a.418.418,0,0,1-.462-.462.412.412,0,0,1,.472-.415A.444.444,0,0,1,405.115,410.114Zm4.529.878c0,.689-.009,1.387,0,2.076s-.132.736.727.727c-.2.274-.491.132-.708.094s-.094-.293-.094-.453q-.009-1.029,0-2.067C409.559,411.246,409.474,411.086,409.644,410.991Z" transform="translate(-185.229 5626.838)"/><path d="M388.376,483.528c.038-.142.047-.208.066-.274s.038-.33.245-.264.038.245.019.34a5.641,5.641,0,0,1-.283.887.245.245,0,0,1-.311.151l-.047-.019c-.16-.094-.009-.17.038-.283.132-.3-.085-.547-.236-.887a3.644,3.644,0,0,1-.075.491c-.1.434-.444.34-.755.349s-.217-.274-.226-.434-.009-.566-.009-.849c0-.085.009-.17.1-.189s.179.009.179.1c0,.491.519.189.67.453C388.263,482.707,388.159,483.283,388.376,483.528Zm-.849-.028c0-.142-.057-.274-.217-.292s-.2.113-.208.245.019.283.208.293S387.5,483.632,387.527,483.5Z" transform="translate(-189.495 5560.775)"/><path d="M414.914,476.623H414c-.132,0-.264-.028-.264-.2s.142-.189.274-.189c.491,0,.972.009,1.463-.009.283-.009.321.142.264.359a.991.991,0,0,1-.538.623,2.678,2.678,0,0,1-2.623-.038.844.844,0,0,1-.1-1.5,2.964,2.964,0,0,1,2.812-.038c.076.057.236.075.151.236s-.151.038-.245.038a1.727,1.727,0,0,1-.717-.17,1.274,1.274,0,0,0-1.378.142.6.6,0,0,0-.019,1A1.438,1.438,0,0,0,414.914,476.623Zm1.793-.236c-.1.349-.2.594-.264.849s-.123.255-.321.264-.472-.047-.33-.415.311-.981.472-1.472c.038-.123.028-.3.217-.321s.264.142.349.274l.642.981.67-1.029c.076-.123.142-.255.321-.226s.17.17.208.283c.16.51.33,1.01.472,1.529.028.113.236.321-.028.377s-.491.142-.6-.179-.16-.538-.245-.84a2.673,2.673,0,0,0-.5.689.322.322,0,0,1-.585-.009C416.99,476.868,416.9,476.689,416.707,476.387Zm4.312,1.132a2.411,2.411,0,0,1-1.482-.472.835.835,0,0,1,.038-1.359,2.741,2.741,0,0,1,2.9-.028.828.828,0,0,1-.047,1.472A2.529,2.529,0,0,1,421.02,477.52Zm0-.349c.585.009,1.132-.377,1.123-.783s-.538-.774-1.132-.764-1.066.359-1.066.774S420.435,477.161,421.02,477.17Z" transform="translate(-212.373 5567.369)"/></g></svg>