<svg xmlns="http://www.w3.org/2000/svg" viewBox="0 0 24 24" id="instagram" width="24" height="24" fill="currentColor"><title xmlns="http://www.w3.org/1999/xhtml">Instagram</title><path d="M12 4c-2.173 0-2.445.01-3.298.048-.852.039-1.433.174-1.942.372a3.921 3.921 0 00-1.417.923A3.9 3.9 0 004.42 6.76c-.198.509-.333 1.09-.372 1.942C4.01 9.555 4 9.827 4 12s.01 2.445.048 3.298c.039.852.174 1.433.372 1.942.204.526.478.973.923 1.417a3.9 3.9 0 001.417.923c.509.198 1.09.333 1.942.372C9.555 19.99 9.827 20 12 20s2.445-.01 3.298-.048c.852-.039 1.433-.174 1.942-.372a3.922 3.922 0 001.417-.923 3.9 3.9 0 00.923-1.417c.198-.509.333-1.09.372-1.942.039-.853.048-1.125.048-3.298s-.01-2.445-.048-3.298c-.039-.852-.174-1.433-.372-1.942a3.922 3.922 0 00-.923-1.417 3.921 3.921 0 00-1.417-.923c-.509-.198-1.09-.333-1.942-.372C14.445 4.01 14.173 4 12 4zm0 1.441c2.136 0 2.39.009 3.233.047.78.036 1.203.166 1.485.276.374.145.64.318.92.598.28.28.453.546.598.92.11.282.24.705.276 1.485.038.844.047 1.097.047 3.233s-.009 2.39-.047 3.233c-.036.78-.166 1.203-.276 1.485-.145.374-.318.64-.598.92-.28.28-.546.453-.92.598-.282.11-.705.24-1.485.276-.844.038-1.097.047-3.233.047s-2.39-.009-3.233-.047c-.78-.036-1.203-.166-1.485-.276a2.478 2.478 0 01-.92-.598 2.479 2.479 0 01-.598-.92c-.11-.282-.24-.705-.276-1.485-.038-.844-.047-1.097-.047-3.233s.009-2.39.047-3.233c.036-.78.166-1.203.276-1.485.145-.374.318-.64.598-.92.28-.28.546-.453.92-.598.282-.11.705-.24 1.485-.276.844-.038 1.097-.047 3.233-.047z"/><path d="M12 14.661a2.661 2.661 0 110-5.322 2.661 2.661 0 010 5.322zM12 7.9a4.1 4.1 0 100 8.2 4.1 4.1 0 000-8.2zm5.2-.2a.95.95 0 11-1.9 0 .95.95 0 011.9 0"/></svg>