<svg xmlns="http://www.w3.org/2000/svg" viewBox="0 0 22 22" id="linkedin" width="22" height="22" fill="currentColor"><title xmlns="http://www.w3.org/1999/xhtml">Linkedin</title><path d="M19.8 0H2.2C.99 0 0 .99 0 2.2v17.6C0 21.01.99 22 2.2 22h17.6c1.21 0 2.2-.99 2.2-2.2V2.2C22 .99 21.01 0 19.8 0zM6.6 18.7H3.3V8.8h3.3v9.9zM4.95 6.93c-1.1 0-1.98-.88-1.98-1.98s.88-1.98 1.98-1.98 1.98.88 1.98 1.98-.88 1.98-1.98 1.98zM18.7 18.7h-3.3v-5.83c0-.88-.77-1.65-1.65-1.65-.88 0-1.65.77-1.65 1.65v5.83H8.8V8.8h3.3v1.32c.55-.88 1.76-1.54 2.75-1.54 2.09 0 3.85 1.76 3.85 3.85v6.27z"/></svg>