<svg xmlns="http://www.w3.org/2000/svg" viewBox="0 0 24 24" id="pinterest" width="24" height="24" fill="currentColor"><title xmlns="http://www.w3.org/1999/xhtml">Pinterest</title><path d="M12 3a9 9 0 00-3.28 17.38c-.079-.711-.15-1.804.031-2.58.164-.703 1.056-4.474 1.056-4.474s-.27-.54-.27-1.337c0-1.251.726-2.185 1.629-2.185.768 0 1.139.576 1.139 1.267 0 .773-.492 1.927-.746 2.997-.212.896.45 1.626 1.333 1.626 1.6 0 2.83-1.686 2.83-4.121 0-2.155-1.55-3.662-3.76-3.662-2.56 0-4.064 1.921-4.064 3.906 0 .774.298 1.603.67 2.054a.27.27 0 01.062.258c-.068.284-.22.896-.25 1.02-.039.166-.13.2-.3.121-1.125-.523-1.827-2.166-1.827-3.486 0-2.84 2.062-5.447 5.946-5.447 3.122 0 5.548 2.225 5.548 5.198 0 3.102-1.955 5.598-4.67 5.598-.912 0-1.769-.474-2.063-1.033l-.56 2.14c-.203.781-.752 1.76-1.119 2.359A9.02 9.02 0 0012 21a9 9 0 100-18"/></svg>