<svg xmlns="http://www.w3.org/2000/svg" viewBox="0 0 210 51" id="tripadvisor" width="210" height="51" fill="currentColor">
  <title xmlns="http://www.w3.org/1999/xhtml">Tripadvisor</title>
  <path fill="#FFF" d="M24.324 11.27c4.735 0 9.2 1.08 12.717 3.645h9.335l-2.164 2.97c-.136.27-.812 1.35-1.218 2.295.406.675.677 1.35.947 2.025 2.165 5.67-.812 12.15-6.63 14.31-1.352.405-2.57.675-3.923.675-1.623 0-3.247-.405-4.735-1.08a13.408 13.408 0 01-2.3-1.485l-.677 1.08L24.188 38 22.7 35.705l-.676-1.08c-2.03 1.485-4.465 2.43-7.036 2.43-6.223 0-11.23-4.995-11.23-11.205 0-2.025.542-4.05 1.624-5.805-.27-.945-.947-1.89-1.217-2.295L2 14.78h9.065c3.653-2.295 8.253-3.51 13.259-3.51zm0 1.755c-4.871 0-9.336 1.215-12.853 3.51H5.653s1.353 1.89 1.623 3.78c-1.082 1.62-1.758 3.51-1.758 5.535 0 5.13 4.194 9.315 9.335 9.315 2.976 0 5.547-1.35 7.306-3.51l2.03 2.97 2.029-2.97c.811 1.215 2.03 2.025 3.382 2.7 1.218.54 2.57.81 3.924.81 1.082 0 2.164-.135 3.247-.54 4.87-1.89 7.305-7.155 5.547-12.015-.27-.81-.677-1.62-1.218-2.295.541-1.89 1.894-3.78 1.894-3.78h-6.223c-3.518-2.295-7.712-3.51-12.447-3.51zm-.948 12.69c0 4.59-3.788 8.37-8.388 8.37S6.6 30.305 6.6 25.715s3.788-8.37 8.388-8.37a8.335 8.335 0 018.388 8.37zm2.436 2.97a8.341 8.341 0 015.006-10.8c4.33-1.62 9.2.675 10.823 4.995 1.624 4.32-.676 9.18-5.006 10.8-4.33 1.62-9.2-.675-10.823-4.995z"/>
  <path fill="#000A12" d="M41.1 20.18c.541.675.947 1.485 1.353 2.295 1.759 4.86-.677 10.26-5.412 12.015-2.435.945-4.87.81-7.17-.27-1.353-.675-2.436-1.62-3.383-2.7l-2.03 2.97-2.029-2.97c-1.758 2.16-4.329 3.51-7.305 3.51-5.142 0-9.336-4.185-9.336-9.315 0-2.025.677-4.05 1.76-5.535-.542-1.755-1.895-3.645-1.895-3.645h5.818c3.517-2.295 7.982-3.51 12.853-3.51 4.735 0 8.929 1.215 12.447 3.51h6.223S41.641 18.29 41.1 20.18zm-4.87 12.555c3.923-1.35 5.817-5.67 4.464-9.585-1.488-3.915-5.818-5.94-9.606-4.455-1.894.675-3.382 2.16-4.194 3.915-.947 1.755-.947 3.78-.27 5.67.676 1.89 2.164 3.375 3.923 4.185a7.52 7.52 0 005.682.27zm-21.242.405a7.411 7.411 0 007.441-7.425c0-4.05-3.382-7.425-7.44-7.425-4.06 0-7.442 3.375-7.442 7.425s3.382 7.425 7.441 7.425zm-.135-4.455c1.759 0 3.112-1.35 2.976-2.97 0-1.62-1.353-2.97-2.976-2.97-1.624 0-2.977 1.35-2.977 2.97s1.353 2.97 2.977 2.97zm0-7.695c2.57 0 4.735 2.16 4.6 4.59 0 2.565-2.03 4.59-4.6 4.59s-4.6-2.025-4.6-4.59 2.03-4.59 4.6-4.59zm18.806 7.695c1.623 0 2.976-1.35 2.976-2.97s-1.353-2.97-2.976-2.97c-1.624 0-2.977 1.35-2.977 2.97s1.353 2.97 2.977 2.97zm0-7.695c2.57 0 4.6 2.16 4.6 4.59 0 2.565-2.03 4.59-4.6 4.59s-4.6-2.025-4.6-4.59 2.03-4.59 4.6-4.59z"/>
  <path fill="#EF6945" d="M16.476 25.58a1.5 1.5 0 01-1.488 1.485A1.5 1.5 0 0113.5 25.58a1.5 1.5 0 011.488-1.485 1.5 1.5 0 011.488 1.485"/>
  <path fill="#00A680" d="M35.147 25.58a1.5 1.5 0 01-1.488 1.485 1.5 1.5 0 01-1.488-1.485 1.5 1.5 0 011.488-1.485 1.5 1.5 0 011.488 1.485"/>
  <path fill="#FBC40F" d="M33.388 16.4a24.092 24.092 0 00-9.064-1.755c-3.383 0-6.36.675-9.065 1.755 4.735.135 8.794 3.915 9.065 8.64.135-1.08.27-2.16.811-3.24 1.083-2.16 2.977-3.915 5.277-4.86.947-.27 2.03-.54 2.976-.54z"/>
  <path fill="#FFF" d="M62.123 21.896h-4.292v7.122c0 .935.172 1.618.513 2.022.337.394.865.587 1.612.587.705 0 1.285-.056 1.726-.165l.165-.041.149 2.242-.095.032c-.777.252-1.722.38-2.809.38-3.028 0-4.562-1.646-4.562-4.888v-7.291H52v-2.274h2.53v-2.555l3.3-.848v3.403h4.293v2.274zm11.402-2.531l.118.013v2.775l-.164-.032a5.707 5.707 0 00-1.037-.083 3.95 3.95 0 00-2.786 1.096c-.777.734-1.171 1.793-1.171 3.155v7.47h-3.367V24.16c0-1.788-.044-3.274-.133-4.416l-.009-.124h3.001l.172 2.385a4.95 4.95 0 011.7-1.857 5.113 5.113 0 012.826-.844c.218 0 .496.019.85.06zm3.044 14.394V19.62h3.367v14.14h-3.367zm1.667-16.43c-.612 0-1.12-.18-1.512-.523a1.664 1.664 0 01-.588-1.289c0-.5.2-.926.598-1.27.395-.339.912-.513 1.535-.513.6 0 1.106.174 1.502.513.396.344.598.77.598 1.27 0 .51-.198.94-.589 1.289-.39.344-.91.523-1.544.523zm18.097 3.948c1.303 1.343 1.963 3.09 1.963 5.181 0 2.325-.712 4.206-2.117 5.59-1.412 1.39-3.199 2.096-5.309 2.096-1.073 0-2.072-.197-2.968-.592a5.113 5.113 0 01-1.779-1.27v7.236H82.75v-15.21c0-1.857-.043-3.389-.126-4.558l-.015-.197h3.061l.137 2.095c1.305-1.6 3.177-2.411 5.57-2.411 1.976 0 3.643.687 4.957 2.04zm-8.276 1.133c-.72.453-1.226 1.009-1.505 1.655-.284.66-.429 1.193-.429 1.591V27.9c0 1.063.414 1.967 1.228 2.687.812.72 1.804 1.086 2.95 1.086 1.418 0 2.51-.445 3.338-1.357.83-.912 1.25-2.173 1.25-3.742 0-1.403-.415-2.577-1.235-3.49-.817-.907-1.872-1.347-3.226-1.347a4.43 4.43 0 00-2.37.674z"/>
  <path fill="#00A680" d="M201.996 18.517c1.604 0 2.903 1.118 2.903 2.503s-1.3 2.509-2.903 2.509c-1.604 0-2.904-1.124-2.904-2.509 0-1.385 1.3-2.503 2.904-2.503zm0 4.54c1.301 0 2.359-.914 2.359-2.037 0-1.123-1.058-2.036-2.36-2.036-1.3 0-2.358.913-2.358 2.036s1.057 2.036 2.359 2.036zm-.5-.753h-.76v-2.756h1.132c.569 0 1.291.06 1.291.803 0 .348-.178.614-.67.729l.766 1.224h-.837l-.664-1.123h-.258v1.123zm0-1.564c.436 0 .502 0 .611-.032.245-.064.263-.215.263-.367 0-.192-.077-.284-.228-.33-.12-.032-.215-.032-.646-.032v.761zm-88.141 12.882l.03.137h-3.107l-.332-1.619c-1.218 1.284-2.902 1.935-5.01 1.935-1.561 0-2.83-.403-3.774-1.206-.943-.798-1.421-1.774-1.421-2.902 0-1.724.879-3.059 2.611-3.967 1.686-.885 4.168-1.339 7.373-1.352v-.143c0-.95-.304-1.696-.903-2.22-.596-.526-1.5-.792-2.69-.792-1.607 0-3.06.352-4.32 1.045l-.144.078-.79-1.98.092-.047c1.568-.853 3.461-1.284 5.63-1.284 2.124 0 3.756.514 4.85 1.532 1.088 1.013 1.641 2.49 1.641 4.388v5.086c0 1.366.09 2.48.264 3.31zm-4.718-2.674c.766-.6 1.153-1.288 1.153-2.045V26.72c-2.486.009-4.235.275-5.199.789-.976.518-1.45 1.21-1.45 2.109 0 .702.24 1.257.714 1.646.477.395 1.12.597 1.913.597 1.134 0 2.1-.308 2.869-.913zm21.768 2.88h-3.06l-.184-2.031a5.481 5.481 0 01-1.907 1.59c-.977.505-2.1.757-3.336.757-1.996 0-3.686-.692-5.018-2.054-1.325-1.353-1.996-3.096-1.996-5.168 0-2.247.705-4.109 2.099-5.53 1.4-1.43 3.162-2.156 5.23-2.156 1.106 0 2.112.197 2.988.597.661.298 1.22.678 1.664 1.137V13h3.376v16.994c0 1.537.042 2.756.125 3.632l.019.202zm-3.52-8.374c0-1.118-.401-2.036-1.193-2.719-.791-.683-1.751-1.027-2.856-1.027-1.364 0-2.433.45-3.266 1.376-.835.93-1.26 2.164-1.26 3.664 0 1.408.401 2.586 1.19 3.508.787.917 1.857 1.361 3.272 1.361 1.064 0 2.025-.362 2.86-1.072.832-.716 1.253-1.683 1.253-2.88v-2.21zm17.34-5.832h3.594l-8.08 14.137-8.23-14.137h3.656s4.178 7.236 4.558 8.24c.3-.835 4.502-8.24 4.502-8.24zm5.225 14.137V19.62h3.368v14.14h-3.368zm1.668-16.43c-.613 0-1.12-.18-1.512-.523a1.663 1.663 0 01-.587-1.289c0-.5.2-.926.595-1.27.396-.339.914-.513 1.536-.513.6 0 1.108.174 1.503.513.396.344.598.77.598 1.27 0 .51-.2.94-.587 1.289-.39.344-.91.523-1.546.523zm14.981 9.863c.696.679 1.05 1.532 1.05 2.545 0 1.294-.58 2.353-1.724 3.15-1.135.79-2.694 1.189-4.636 1.189-1.78 0-3.392-.335-4.791-.991l-.099-.046.818-2.274.15.078c1.282.674 2.623 1.017 3.989 1.017.961 0 1.713-.179 2.228-.522.515-.344.762-.793.762-1.371 0-.56-.204-.996-.629-1.348-.433-.354-1.209-.693-2.306-1.014-2.998-.885-4.517-2.247-4.517-4.044 0-1.202.544-2.22 1.617-3.036 1.07-.807 2.507-1.22 4.277-1.22 1.636 0 3.046.293 4.193.876l.096.05-.855 2.151-.141-.073c-1.097-.541-2.237-.817-3.395-.817-.783 0-1.407.17-1.859.496-.448.33-.667.742-.667 1.256 0 .459.187.835.566 1.151.388.321 1.222.68 2.473 1.064 1.568.486 2.712 1.068 3.4 1.733zm16.493-5.86c1.44 1.344 2.17 3.095 2.17 5.214 0 1.509-.35 2.843-1.044 3.976-.693 1.137-1.679 2.022-2.93 2.632a9.18 9.18 0 01-4.066.921c-2.264 0-4.157-.683-5.632-2.027-1.471-1.343-2.218-3.104-2.218-5.24 0-2.275.77-4.11 2.29-5.462 1.522-1.353 3.466-2.041 5.78-2.041 2.306 0 4.208.683 5.65 2.027zm-5.87 10.529c1.33 0 2.456-.491 3.346-1.454.898-.968 1.355-2.238 1.355-3.774 0-1.413-.42-2.636-1.248-3.632-.816-.981-1.947-1.48-3.358-1.48-1.434 0-2.582.495-3.408 1.467-.837.985-1.262 2.242-1.262 3.732 0 1.486.441 2.733 1.315 3.696.864.959 1.96 1.445 3.26 1.445zm19.342-12.496l.12.013v2.775l-.165-.032a5.717 5.717 0 00-1.036-.083 3.95 3.95 0 00-2.786 1.096c-.778.734-1.171 1.793-1.171 3.155v7.47h-3.369V24.16c0-1.788-.045-3.274-.133-4.416l-.007-.124h3.001l.17 2.385a4.961 4.961 0 011.7-1.857 5.12 5.12 0 012.826-.844c.218 0 .497.019.85.06z"/>
</svg>