<svg xmlns="http://www.w3.org/2000/svg" viewBox="0 0 24 24" id="twitter" width="24" height="24" fill="currentColor"><title xmlns="http://www.w3.org/1999/xhtml">Twitter</title><path d="M8.66 19.5c6.793 0 10.508-5.771 10.508-10.776 0-.164 0-.327-.01-.49A7.623 7.623 0 0021 6.274a7.228 7.228 0 01-2.121.596 3.785 3.785 0 001.623-2.095 7.29 7.29 0 01-2.345.919 3.63 3.63 0 00-4.437-.745c-1.473.808-2.234 2.53-1.856 4.2-2.97-.153-5.736-1.592-7.611-3.958-.98 1.73-.48 3.945 1.143 5.056a3.596 3.596 0 01-1.676-.474v.048c0 1.803 1.24 3.356 2.963 3.713a3.598 3.598 0 01-1.668.065c.484 1.542 1.87 2.6 3.45 2.63A7.293 7.293 0 013 17.799a10.266 10.266 0 005.66 1.698"/></svg>