<svg xmlns="http://www.w3.org/2000/svg" viewBox="0 0 24 24" id="weibo" width="24" height="24" fill="currentColor"><title xmlns="http://www.w3.org/1999/xhtml">Weibo</title><g fill="currentColor"><path d="M16.266 11.103c-.132.359.043.412.297.495 1.036.346 2.19 1.18 2.187 2.653 0 2.434-3.266 5.499-8.176 5.499C6.829 19.75 3 17.798 3 14.591c0-1.678.989-3.62 2.69-5.448C7.966 6.7 10.619 5.585 11.616 6.66c.438.474.48 1.29.2 2.267-.15.49.428.22.428.22 1.838-.827 3.443-.876 4.028.024.314.482.284 1.154-.005 1.933zM4.812 15.259c.193 2.046 2.763 3.458 5.74 3.148 2.975-.306 5.232-2.217 5.036-4.266-.19-2.046-2.761-3.458-5.738-3.148-2.974.309-5.232 2.217-5.038 4.266zm2.43-1.35c.604-1.304 2.176-2.043 3.567-1.657 1.44.397 2.177 1.84 1.587 3.245-.597 1.433-2.313 2.2-3.77 1.7-1.403-.482-2-1.96-1.384-3.289zm2.93.613c.168.076.386-.01.484-.192.094-.185.033-.39-.136-.455-.166-.071-.374.015-.472.192-.096.177-.045.382.124.455zm-1.809 1.444c.471.211 1.1.01 1.391-.449.288-.464.137-.992-.337-1.193-.47-.194-1.074.005-1.364.451-.292.45-.154.983.31 1.191zM19.793 5.89c1.162 1.365 1.477 3.228.98 4.857v.003c-.116.376-.496.583-.853.461-.356-.122-.552-.526-.437-.904.354-1.16.13-2.484-.696-3.456-.825-.971-2.043-1.341-3.169-1.088-.366.083-.725-.163-.803-.551-.078-.386.154-.77.52-.853 1.582-.357 3.296.164 4.458 1.531zM18.18 7.227c.598.648.758 1.531.503 2.306a.62.62 0 01-.776.388.602.602 0 01-.397-.76 1.134 1.134 0 00-.245-1.127 1.196 1.196 0 00-1.122-.353.615.615 0 01-.73-.462.605.605 0 01.475-.716 2.435 2.435 0 012.292.724z" id="ja"/></g></svg>