<svg xmlns="http://www.w3.org/2000/svg" viewBox="0 0 24 24" id="youtube" width="24" height="24" fill="currentColor"><title xmlns="http://www.w3.org/1999/xhtml">Youtube</title><path d="M10.16 14.744V9.256L14.863 12l-4.705 2.744zM20.623 7.53a2.291 2.291 0 00-1.592-1.642C17.63 5.5 12 5.5 12 5.5s-5.629 0-7.032.388A2.291 2.291 0 003.376 7.53C3 8.978 3 12 3 12s0 3.022.376 4.47a2.29 2.29 0 001.592 1.642C6.37 18.5 12 18.5 12 18.5s5.629 0 7.032-.388a2.291 2.291 0 001.592-1.642C21 15.022 21 12 21 12s0-3.022-.376-4.47z"/></svg>